
<svg xmlns="http://www.w3.org/2000/svg" xmlns:xlink="http://www.w3.org/1999/xlink" viewBox="0 0 527.64 288.11">
                <defs>

					<style>

						.mobile_cls-1 {
						isolation: isolate;
						}

						.mobile_cls-2 {
						fill: url(#linear-gradient);
						}

						.mobile_cls-3 {
						fill: url(#linear-gradient-2);
						}

						.mobile_cls-4, .mobile_cls-46, .mobile_cls-7 {
						mix-blend-mode: color-dodge;
						}

						.mobile_cls-5 {
						fill: #43c9c2;
						}

						.mobile_cls-6 {
						fill: url(#linear-gradient-3);
						}

						.mobile_cls-13, .mobile_cls-25, .mobile_cls-7 {
						opacity: 0.5;
						}

						.mobile_cls-10, .mobile_cls-8 {
						fill: #f6f5f7;
						}

						.mobile_cls-11, .mobile_cls-45, .mobile_cls-9 {
						fill: none;
						}

						.mobile_cls-9 {
						stroke: #e5d4ef;
						}

						.mobile_cls-11, .mobile_cls-22, .mobile_cls-45, .mobile_cls-9 {
						stroke-miterlimit: 10;
						}

						.mobile_cls-10, .mobile_cls-23, .mobile_cls-24, .mobile_cls-45 {
						mix-blend-mode: multiply;
						}

						.mobile_cls-11 {
						mix-blend-mode: lighten;
						stroke: url(#linear-gradient-4);
						}

						.mobile_cls-12 {
						fill: url(#linear-gradient-5);
						}

						.mobile_cls-13, .mobile_cls-14 {
						fill: #04e2ff;
						}

						.mobile_cls-13, .mobile_cls-16, .mobile_cls-19, .mobile_cls-22 {
						mix-blend-mode: hard-light;
						}

						.mobile_cls-15, .mobile_cls-21 {
						opacity: 0.83;
						}

						.mobile_cls-15 {
						fill: url(#linear-gradient-6);
						}

						.mobile_cls-16, .mobile_cls-22 {
						fill: #552cff;
						}

						.mobile_cls-17 {
						fill: #197bdd;
						}

						.mobile_cls-18 {
						opacity: 0.89;
						fill: url(#linear-gradient-7);
						}

						.mobile_cls-19, .mobile_cls-20 {
						fill: #ff0090;
						}

						.mobile_cls-19 {
						opacity: 0.85;
						}

						.mobile_cls-21 {
						fill: url(#linear-gradient-8);
						}

						.mobile_cls-22 {
						stroke: #62a7f9;
						}

						.mobile_cls-23 {
						fill: url(#linear-gradient-9);
						}

						.mobile_cls-24 {
						fill: #d1b4e3;
						}

						.mobile_cls-26, .mobile_cls-43 {
						fill: #e5d4ef;
						}

						.mobile_cls-27, .mobile_cls-44, .mobile_cls-47 {
						opacity: 0.8;
						}

						.mobile_cls-28 {
						opacity: 0.6;
						}

						.mobile_cls-29 {
						fill: url(#linear-gradient-10);
						}

						.mobile_cls-30 {
						fill: url(#linear-gradient-11);
						}

						.mobile_cls-31 {
						fill: url(#linear-gradient-12);
						}

						.mobile_cls-32 {
						fill: url(#linear-gradient-13);
						}

						.mobile_cls-33 {
						fill: url(#linear-gradient-14);
						}

						.mobile_cls-34 {
						fill: url(#linear-gradient-15);
						}

						.mobile_cls-35 {
						fill: url(#linear-gradient-16);
						}

						.mobile_cls-36 {
						fill: url(#linear-gradient-17);
						}

						.mobile_cls-37 {
						fill: url(#linear-gradient-18);
						}

						.mobile_cls-38 {
						fill: url(#linear-gradient-19);
						}

						.mobile_cls-39 {
						fill: url(#linear-gradient-20);
						}

						.mobile_cls-40 {
						fill: url(#linear-gradient-21);
						}

						.mobile_cls-41 {
						fill: url(#linear-gradient-22);
						}

						.mobile_cls-42 {
						fill: url(#linear-gradient-23);
						}

						.mobile_cls-43, .mobile_cls-46 {
						opacity: 0.7;
						}

						.mobile_cls-43 {
						mix-blend-mode: overlay;
						}

						.mobile_cls-44 {
						fill: url(#linear-gradient-24);
						}

						.mobile_cls-45 {
						stroke: url(#linear-gradient-25);
						}

						.mobile_cls-47 {
						fill: url(#linear-gradient-26);
						}

						.mobile_cls-48 {
						fill: #cc1783;
						}

						.mobile_cls-49 {
						fill: #5e0246;
						}

						.mobile_cls-50 {
						fill: #52002e;
						}

						.mobile_cls-51 {
						fill: #820b5d;
						}

						.mobile_cls-52 {
						fill: #aa0b71;
						}

						.mobile_cls-53 {
						fill: #560031;
						}

						.mobile_cls-54 {
						fill: #450027;
						}

						.mobile_cls-55 {
						fill: #810048;
						}
					</style>
                    <linearGradient id="linear-gradient" x1="849.89" y1="200.9" x2="1261.48" y2="200.9" gradientTransform="matrix(-1, 0, 0, 1, 1324.29, 0)" gradientUnits="userSpaceOnUse"><stop offset="0" stop-color="#001282" /><stop offset="0.47" stop-color="#00077d" /><stop offset="1" stop-color="#00007a" /></linearGradient>
                    <linearGradient id="linear-gradient-2" x1="975.06" y1="76.03" x2="1142.78" y2="243.75" gradientTransform="matrix(-1, 0, 0, 1, 1324.29, 0)" gradientUnits="userSpaceOnUse"><stop offset="0" stop-color="#001282" /><stop offset="0.19" stop-color="#101e9a" /><stop offset="0.53" stop-color="#2931bf" /><stop offset="0.8" stop-color="#383cd6" /><stop offset="0.97" stop-color="#3e40de" /></linearGradient>
                    <linearGradient id="linear-gradient-3" x1="62.82" y1="200.9" x2="482.26" y2="200.9" gradientUnits="userSpaceOnUse"><stop offset="0" stop-color="#00006b" /><stop offset="0.36" stop-color="#2c29bb" /><stop offset="1" stop-color="#000045" /></linearGradient>
                    <linearGradient id="linear-gradient-4" x1="359.04" y1="100.46" x2="408.76" y2="100.46" gradientUnits="userSpaceOnUse"><stop offset="0" stop-color="#5a0090" /><stop offset="0.23" stop-color="#410072" /><stop offset="0.56" stop-color="#21004c" /><stop offset="0.83" stop-color="#0d0034" /><stop offset="1" stop-color="#06002b" /></linearGradient>
                    <linearGradient id="linear-gradient-5" x1="278.79" y1="61.83" x2="278.79" y2="102.83" gradientUnits="userSpaceOnUse"><stop offset="0" stop-color="#04a9ff" stop-opacity="0.8" /><stop offset="1" stop-color="#154bff" stop-opacity="0.7" /></linearGradient>
                    <linearGradient id="linear-gradient-6" x1="308.07" y1="119.45" x2="307.78" y2="77.43" gradientUnits="userSpaceOnUse"><stop offset="0" stop-color="#10007f" stop-opacity="0.8" /><stop offset="0.2" stop-color="#150389" stop-opacity="0.79" /><stop offset="0.46" stop-color="#240da4" stop-opacity="0.77" /><stop offset="0.75" stop-color="#3c1cd0" stop-opacity="0.74" /><stop offset="1" stop-color="#552cff" stop-opacity="0.7" /></linearGradient>
                    <linearGradient id="linear-gradient-7" x1="336.93" y1="19.69" x2="336.93" y2="138.45" gradientUnits="userSpaceOnUse"><stop offset="0" stop-color="#ff0090" stop-opacity="0.8" /><stop offset="1" stop-color="#154bff" stop-opacity="0.7" /></linearGradient>
                    <linearGradient id="linear-gradient-8" x1="367.03" y1="169.31" x2="365.75" y2="114.31" xlink:href="#linear-gradient-6" />
                    <linearGradient id="linear-gradient-9" x1="-192.9" y1="-43.21" x2="61.65" y2="438.03" gradientTransform="matrix(-1, 0, 0, 1, 143.54, 0)" gradientUnits="userSpaceOnUse"><stop offset="0.04" stop-color="#6b24d6" /><stop offset="0.32" stop-color="#7a1cd0" /><stop offset="0.86" stop-color="#a306c1" /><stop offset="0.98" stop-color="#ad00bd" /></linearGradient>
                    <linearGradient id="linear-gradient-10" x1="-66.33" y1="235.89" x2="-31.18" y2="235.89" gradientTransform="matrix(-1, 0, 0, 1, 143.54, 0)" gradientUnits="userSpaceOnUse"><stop offset="0" stop-color="#2d085d" /><stop offset="1" stop-color="#410f82" /></linearGradient>
                    <linearGradient id="linear-gradient-11" x1="-81.06" y1="223.19" x2="-31.35" y2="223.19" xlink:href="#linear-gradient-10" />
                    <linearGradient id="linear-gradient-12" x1="-95.79" y1="217.31" x2="-55.17" y2="217.31" xlink:href="#linear-gradient-10" />
                    <linearGradient id="linear-gradient-13" x1="-110.51" y1="210.38" x2="-75.36" y2="210.38" xlink:href="#linear-gradient-10" />
                    <linearGradient id="linear-gradient-14" x1="-125.24" y1="203.98" x2="-97.36" y2="203.98" xlink:href="#linear-gradient-10" />
                    <linearGradient id="linear-gradient-15" x1="-139.96" y1="192.19" x2="-100.68" y2="192.19" xlink:href="#linear-gradient-10" />
                    <linearGradient id="linear-gradient-16" x1="-154.69" y1="185.44" x2="-121.47" y2="185.44" xlink:href="#linear-gradient-10" />
                    <linearGradient id="linear-gradient-17" x1="-66.33" y1="237.92" x2="-38.21" y2="237.92" xlink:href="#linear-gradient-10" />
                    <linearGradient id="linear-gradient-18" x1="-81.06" y1="226.27" x2="-42.02" y2="226.27" xlink:href="#linear-gradient-10" />
                    <linearGradient id="linear-gradient-19" x1="-95.79" y1="218.82" x2="-60.39" y2="218.82" xlink:href="#linear-gradient-10" />
                    <linearGradient id="linear-gradient-20" x1="-110.51" y1="212.41" x2="-82.39" y2="212.41" xlink:href="#linear-gradient-10" />
                    <linearGradient id="linear-gradient-21" x1="-125.24" y1="206.01" x2="-104.39" y2="206.01" xlink:href="#linear-gradient-10" />
                    <linearGradient id="linear-gradient-22" x1="-139.96" y1="194.22" x2="-107.72" y2="194.22" xlink:href="#linear-gradient-10" />
                    <linearGradient id="linear-gradient-23" x1="-154.69" y1="188.52" x2="-132.15" y2="188.52" xlink:href="#linear-gradient-10" />
                    <linearGradient id="linear-gradient-24" x1="752.85" y1="1448.51" x2="749.23" y2="1526" gradientTransform="matrix(-0.87, 0.5, 1, 0.58, -533.51, -1067.27)" xlink:href="#linear-gradient-10" />
                    <linearGradient id="linear-gradient-25" x1="249.65" y1="130.9" x2="246.96" y2="139.58" gradientTransform="matrix(1, 0, 0, 1, 0, 0)" xlink:href="#linear-gradient-9" />
                    <linearGradient id="linear-gradient-26" x1="-186.26" y1="177.27" x2="-160.74" y2="177.27" xlink:href="#linear-gradient-10" />
                </defs>
                <g class="mobile_cls-1"><g id="Layer_2" data-name="Layer 2"><g id="Layer_1-2" data-name="Layer 1"><g id="Mobile"><g id="Phone"><g id="Phone-2" data-name="Phone"><path class="mobile_cls-2" d="M70.11,209.87l106,61.59c9.78,5.68,25.72,5.68,35.56,0L467,124.06c5-2.86,7.43-6.62,7.42-10.37l0,12.38c0,3.76-2.46,7.51-7.41,10.37L211.67,283.85c-9.83,5.68-25.78,5.68-35.55,0l-106-61.59c-4.85-2.82-7.28-6.52-7.29-10.22l0-12.39C62.83,203.36,65.26,207.06,70.11,209.87Z" /><path class="mobile_cls-3" d="M70.23,189.29c-9.84,5.67-9.89,14.91-.12,20.58l106,61.59c9.78,5.68,25.72,5.68,35.56,0L467,124.06c9.85-5.68,9.9-14.92.12-20.6l-106-61.59c-9.77-5.67-25.71-5.67-35.56,0Z" /><g class="mobile_cls-4"><path class="mobile_cls-5" d="M343.35,39.62c6.38,0,12.32,1.41,16.74,4l106,61.59c4.07,2.36,6.3,5.39,6.3,8.53s-2.28,6.22-6.42,8.61L210.64,269.73c-4.46,2.58-10.42,4-16.8,4s-12.32-1.42-16.75-4l-106-61.58c-4.06-2.37-6.3-5.39-6.29-8.53s2.28-6.22,6.41-8.6L326.54,43.61c4.47-2.58,10.44-4,16.81-4m0-2c-6.44,0-12.88,1.42-17.81,4.26L70.23,189.29c-9.84,5.67-9.89,14.91-.12,20.59l106,61.58c4.89,2.84,11.33,4.26,17.76,4.26s12.88-1.42,17.8-4.25L467,124.06c9.85-5.68,9.9-14.92.12-20.6l-106-61.59c-4.88-2.83-11.31-4.25-17.75-4.25Z" /></g><path class="mobile_cls-6" d="M70.11,209.87l106,61.59c9.78,5.68,25.72,5.68,35.56,0L467,124.06c5-2.86,7.43-6.62,7.42-10.37l0,12.38c0,3.76-2.46,7.51-7.41,10.37L211.67,283.85c-9.83,5.68-25.78,5.68-35.55,0l-106-61.59c-4.85-2.82-7.28-6.52-7.29-10.22l0-12.39C62.83,203.36,65.26,207.06,70.11,209.87Z" /></g><g class="mobile_cls-7"><polygon class="mobile_cls-8" points="348.67 159.28 258.38 107.28 259.2 106.8 349.5 158.8 348.67 159.28" /><path class="mobile_cls-9" d="M432.92,111.7l-31.24,18a13.68,13.68,0,0,1-12.37,0c-3.4-2-3.38-5.17,0-7.14l31.25-18a13.66,13.66,0,0,1,12.36,0C436.36,106.53,436.34,109.73,432.92,111.7Z" /><path class="mobile_cls-10" d="M333.71,97c-4-2.32-4-6.11,0-8.44l31.25-18a16.2,16.2,0,0,1,14.61,0c4,2.32,4,6.11,0,8.44L348.32,97A16.17,16.17,0,0,1,333.71,97Zm32.41-25.83a13.65,13.65,0,0,1,12.37,0c3.39,2,3.38,5.16,0,7.13l-31.25,18a13.66,13.66,0,0,1-12.36,0c-3.4-2-3.39-5.17,0-7.14Z" /><path class="mobile_cls-11" d="M405.69,95l-31.25,18a13.68,13.68,0,0,1-12.37,0c-3.39-2-3.38-5.17,0-7.14l31.25-18a13.66,13.66,0,0,1,12.36,0C409.12,89.82,409.11,93,405.69,95Z" /><path class="mobile_cls-8" d="M306.47,80.29c-4-2.32-4-6.11,0-8.44l31.25-18a16.2,16.2,0,0,1,14.61,0c4,2.32,4,6.11,0,8.44l-31.25,18A16.14,16.14,0,0,1,306.47,80.29Zm32.41-25.83a13.65,13.65,0,0,1,12.37,0c3.4,2,3.38,5.16,0,7.14L320,79.61a13.66,13.66,0,0,1-12.36,0c-3.4-2-3.38-5.17,0-7.14Z" /></g><path class="mobile_cls-12" d="M294.17,50.45,294,96.6a1.64,1.64,0,0,1,0,.22,1.55,1.55,0,0,1-.07.23,1.2,1.2,0,0,1-.11.23,1.67,1.67,0,0,1-.16.24,1.52,1.52,0,0,1-.25.26,2.85,2.85,0,0,1-.5.38l-.05,0-11.27,6.55a5,5,0,0,1-.88.39,6.49,6.49,0,0,1-.76.19l-.51.07-.45,0h-.41l-.39,0-.39-.05-.39-.07-.42-.1-.49-.16a5.18,5.18,0,0,1-.58-.28L264.6,98.19a2,2,0,0,1-1.19-1.65l.13-46.14a2,2,0,0,0,1.19,1.65l11.34,6.55a5.18,5.18,0,0,0,.58.28l.49.16.42.1.39.07.39,0,.4,0h.4a3.4,3.4,0,0,0,.45,0,4.46,4.46,0,0,0,.51-.07,6.46,6.46,0,0,0,.76-.18,5.86,5.86,0,0,0,.88-.39L293,52.05l.05,0a3.38,3.38,0,0,0,.51-.38,2,2,0,0,0,.24-.26,1.11,1.11,0,0,0,.16-.24,1.2,1.2,0,0,0,.11-.23,2,2,0,0,0,.07-.23A1.64,1.64,0,0,0,294.17,50.45Z" /><path class="mobile_cls-13" d="M293,48.77c1.57.91,1.58,2.38,0,3.28L281.74,58.6a6.23,6.23,0,0,1-5.67,0l-11.34-6.55c-1.57-.9-1.58-2.37,0-3.28L276,42.22a6.23,6.23,0,0,1,5.67,0Z" /><path class="mobile_cls-14" d="M278.81,42.54a4.85,4.85,0,0,1,2.34.55l11.34,6.55c.42.24.68.54.68.78s-.25.53-.66.77l-11.27,6.55a4.89,4.89,0,0,1-2.33.54,5,5,0,0,1-2.34-.54l-11.34-6.55c-.42-.25-.68-.55-.68-.79s.25-.52.66-.76l11.27-6.55a4.78,4.78,0,0,1,2.33-.55m0-1a5.81,5.81,0,0,0-2.83.68l-11.27,6.55c-1.56.91-1.55,2.38,0,3.28l11.34,6.55a5.76,5.76,0,0,0,2.84.68,5.7,5.7,0,0,0,2.83-.68L293,52.05c1.56-.9,1.55-2.37,0-3.28l-11.34-6.55a5.87,5.87,0,0,0-2.84-.68Z" /><path class="mobile_cls-15" d="M323.24,66.79l-.13,46.07a1.79,1.79,0,0,1,0,.23,1.87,1.87,0,0,1-.07.22,1.6,1.6,0,0,1-.1.23l-.16.24-.25.27a3.53,3.53,0,0,1-.51.37l-.05,0L310.68,121a4.36,4.36,0,0,1-.88.39,6.49,6.49,0,0,1-.76.19l-.51.07-.44,0h-.41l-.4,0-.39,0-.39-.07-.42-.11a4,4,0,0,1-.49-.16A3.88,3.88,0,0,1,305,121l-11.35-6.55a2,2,0,0,1-1.18-1.65l.13-46.14a1.44,1.44,0,0,0,.17.66,1.66,1.66,0,0,0,.29.42,3,3,0,0,0,.72.57l11.35,6.55a3.88,3.88,0,0,0,.58.28l.28.1a1.66,1.66,0,0,0,.21.06l.42.11h.07l.32,0,.39,0,.4,0h.55l.3,0,.51-.07.31-.07.26-.06.19-.06a4.69,4.69,0,0,0,.88-.39l11.28-6.55,0,0a2.24,2.24,0,0,0,.34-.23l.17-.14a2,2,0,0,0,.24-.26l0,0a1.5,1.5,0,0,0,.15-.23,2,2,0,0,0,.1-.21,1.87,1.87,0,0,0,.07-.22v0A.77.77,0,0,0,323.24,66.79Z" /><path class="mobile_cls-16" d="M323.24,66.72v.07a.77.77,0,0,1,0,.15v0a1.87,1.87,0,0,1-.07.22,2,2,0,0,1-.1.21l-.15.23,0,0a2,2,0,0,1-.24.26l-.17.14a2.24,2.24,0,0,1-.34.23l0,0-11.28,6.55a4.69,4.69,0,0,1-.88.39l-.19.06-.26.06-.31.07-.51.07-.3,0h-.55l-.4,0-.39,0-.32,0h-.07l-.42-.11-.21-.06-.28-.1a3.88,3.88,0,0,1-.58-.28l-11.35-6.55a3,3,0,0,1-.72-.57,1.66,1.66,0,0,1-.29-.42,1.44,1.44,0,0,1-.17-.66A2,2,0,0,1,293.78,65l11.28-6.55a6.19,6.19,0,0,1,5.65,0L322.06,65a2,2,0,0,1,1.18,1.73Z" /><path class="mobile_cls-17" d="M307.88,58.8a4.78,4.78,0,0,1,2.33.55l11.35,6.55c.44.25.69.56.68.82h0v0h0v0h0a.25.25,0,0,1,0,.07l-.05.09,0,.06,0,0-.11.13,0,0,0,0-.07.06-.19.13-.13.07,0,0L310.3,74a3.38,3.38,0,0,1-.68.31l-.12,0-.23.06h-.08l-.19,0-.44.06h-1.07l-.32,0h-.06l-.23,0-.09,0h0l-.3-.08-.2,0-.2-.07a3.8,3.8,0,0,1-.45-.22L294.3,67.45a2,2,0,0,1-.49-.38.76.76,0,0,1-.14-.21.41.41,0,0,1-.06-.2c0-.23.26-.52.67-.76l11.29-6.55a4.67,4.67,0,0,1,2.31-.55m0-1a5.77,5.77,0,0,0-2.82.68L293.78,65a2,2,0,0,0-1.17,1.63,1.44,1.44,0,0,0,.17.66,1.66,1.66,0,0,0,.29.42,3,3,0,0,0,.72.57l11.35,6.55a3.88,3.88,0,0,0,.58.28l.28.1.21.06.42.11h.07l.32,0,.39,0,.4,0h.55l.3,0,.51-.07.31-.07.26-.06.19-.06a4.69,4.69,0,0,0,.88-.39l11.28-6.55,0,0a2.24,2.24,0,0,0,.34-.23l.17-.14a2,2,0,0,0,.24-.26l0,0,.15-.23a2,2,0,0,0,.1-.21,1.87,1.87,0,0,0,.07-.22v0a.77.77,0,0,0,0-.15v0h0A2,2,0,0,0,322.06,65l-11.35-6.55a5.81,5.81,0,0,0-2.83-.68Z" /><path class="mobile_cls-18" d="M352.42,8.91l-.35,122.28a2,2,0,0,1,0,.23,1.87,1.87,0,0,1-.07.22,1.6,1.6,0,0,1-.1.23,1.77,1.77,0,0,1-.17.24,2.91,2.91,0,0,1-.24.27,3.53,3.53,0,0,1-.51.37l0,0-11.27,6.55a4.36,4.36,0,0,1-.88.39,6.49,6.49,0,0,1-.76.19l-.51.07-.45,0h-.41l-.39,0-.39,0-.4-.07-.41-.1-.49-.17a5,5,0,0,1-.57-.27l-11.35-6.56a2,2,0,0,1-1.19-1.65l.35-122.27A2,2,0,0,0,323,10.51l11.35,6.55a3.88,3.88,0,0,0,.58.28l.48.16.42.1.4.07.39,0,.39,0h.41a3.15,3.15,0,0,0,.44,0,4.18,4.18,0,0,0,.51-.07,5.36,5.36,0,0,0,1.64-.57l11.28-6.56.05,0a2.82,2.82,0,0,0,.5-.37,1.57,1.57,0,0,0,.25-.27,1.19,1.19,0,0,0,.16-.23,2.4,2.4,0,0,0,.11-.23,1,1,0,0,0,.06-.23A.85.85,0,0,0,352.42,8.91Z" /><path class="mobile_cls-19" d="M351.24,7.23c1.57.91,1.58,2.37,0,3.28L340,17.06a6.22,6.22,0,0,1-5.65,0L323,10.51c-1.57-.91-1.57-2.37,0-3.28L334.23.68a6.21,6.21,0,0,1,5.66,0Z" /><path class="mobile_cls-20" d="M337.05,1h0a4.79,4.79,0,0,1,2.34.55L350.74,8.1c.42.24.68.54.68.78s-.25.53-.66.76L339.48,16.2a5.28,5.28,0,0,1-4.65,0L323.47,9.65c-.42-.25-.68-.55-.68-.79s.26-.52.67-.76l11.28-6.56A4.78,4.78,0,0,1,337.05,1m0-1a5.77,5.77,0,0,0-2.82.68L323,7.23c-1.56.91-1.56,2.37,0,3.28l11.36,6.56a5.76,5.76,0,0,0,2.82.67,5.67,5.67,0,0,0,2.83-.68l11.28-6.55c1.56-.91,1.55-2.37,0-3.28L339.89.68A5.82,5.82,0,0,0,337.05,0Z" /><path class="mobile_cls-21" d="M381.38,102.24l-.13,46.14a1,1,0,0,1,0,.23.9.9,0,0,1-.06.22,1,1,0,0,1-.11.23,1.67,1.67,0,0,1-.16.24,2.05,2.05,0,0,1-.25.27,2.58,2.58,0,0,1-.51.37l0,0-11.28,6.55a3.91,3.91,0,0,1-.88.39,5.88,5.88,0,0,1-.75.19l-.52.07a3.15,3.15,0,0,1-.44,0,2.81,2.81,0,0,1-.41,0l-.39,0-.39,0-.4-.07-.41-.1-.49-.17a5,5,0,0,1-.57-.27L351.8,150a2,2,0,0,1-1.17-1.64l.13-46.14a2,2,0,0,0,1.18,1.64l11.35,6.56a5,5,0,0,0,.57.27l.49.17.41.1.4.07.39,0,.39,0h.41l.44,0,.52-.07a5.88,5.88,0,0,0,.75-.19,3.91,3.91,0,0,0,.88-.39l11.28-6.55,0,0a2.82,2.82,0,0,0,.5-.37,2.05,2.05,0,0,0,.25-.27,1.67,1.67,0,0,0,.16-.24,1.2,1.2,0,0,0,.11-.23,1.87,1.87,0,0,0,.07-.22A2,2,0,0,0,381.38,102.24Z" /><path class="mobile_cls-22" d="M380.21,100.56c1.56.9,1.57,2.37,0,3.28L369,110.39a6.27,6.27,0,0,1-5.66,0l-11.35-6.55c-1.57-.91-1.58-2.37,0-3.28L363.2,94a6.19,6.19,0,0,1,5.65,0Z" /><polygon class="mobile_cls-23" points="197.27 265.19 355.09 174.28 234.44 104.32 76.62 195.23 197.27 265.19" /><g class="mobile_cls-4"><polygon class="mobile_cls-24" points="117.83 207.13 228.03 143.5 227.45 143.17 117.25 206.79 117.83 207.13" /><polygon class="mobile_cls-24" points="140.39 220.15 250.59 156.53 250 156.19 139.8 219.82 140.39 220.15" /><polygon class="mobile_cls-24" points="106.55 200.62 216.75 136.99 216.17 136.66 105.97 200.28 106.55 200.62" /><polygon class="mobile_cls-24" points="129.11 213.64 239.31 150.02 238.73 149.68 128.53 213.31 129.11 213.64" /><g class="mobile_cls-25"><polygon class="mobile_cls-26" points="234.43 165.24 241.94 160.91 214.29 144.94 206.78 149.27 234.43 165.24" /><polygon class="mobile_cls-26" points="219.71 173.74 227.21 169.41 185.01 145.04 177.5 149.37 219.71 173.74" /><polygon class="mobile_cls-26" points="204.98 182.24 212.49 177.91 179.38 158.79 171.87 163.13 204.98 182.24" /><polygon class="mobile_cls-26" points="190.25 190.75 197.76 186.41 170.11 170.45 162.6 174.78 190.25 190.75" /><polygon class="mobile_cls-26" points="175.53 199.25 183.03 194.91 162.66 183.15 155.16 187.48 175.53 199.25" /><polygon class="mobile_cls-26" points="160.8 207.75 168.31 203.42 140.66 187.45 133.15 191.78 160.8 207.75" /><polygon class="mobile_cls-26" points="146.08 216.25 153.58 211.92 115.02 189.65 107.51 193.99 146.08 216.25" /></g><g class="mobile_cls-27"><polygon class="mobile_cls-26" points="234.43 165.24 241.94 160.91 221.32 149 213.82 153.34 234.43 165.24" /><polygon class="mobile_cls-14" points="219.71 173.74 227.21 169.41 195.68 151.2 188.18 155.54 219.71 173.74" /><polygon class="mobile_cls-26" points="204.98 182.24 212.49 177.91 184.59 161.81 177.09 166.14 204.98 182.24" /><polygon class="mobile_cls-26" points="190.25 190.75 197.76 186.41 177.14 174.51 169.64 178.84 190.25 190.75" /><polygon class="mobile_cls-26" points="175.53 199.25 183.03 194.91 169.69 187.21 162.19 191.54 175.53 199.25" /><polygon class="mobile_cls-26" points="160.8 207.75 168.31 203.42 147.69 191.51 140.19 195.85 160.8 207.75" /><polygon class="mobile_cls-26" points="146.08 216.25 153.58 211.92 125.69 195.81 118.18 200.15 146.08 216.25" /></g></g><polygon class="mobile_cls-24" points="282.43 174.38 172.23 238.01 171.64 237.67 281.85 174.05 282.43 174.38" /><polygon class="mobile_cls-24" points="304.99 187.41 194.78 251.03 194.2 250.69 304.4 187.07 304.99 187.41" /><polygon class="mobile_cls-24" points="271.15 167.87 160.95 231.5 160.37 231.16 270.57 167.53 271.15 167.87" /><polygon class="mobile_cls-24" points="293.71 180.9 183.5 244.52 182.92 244.18 293.12 180.56 293.71 180.9" /><g class="mobile_cls-28"><polygon class="mobile_cls-29" points="209.87 241.71 202.37 246.04 174.71 230.07 182.22 225.74 209.87 241.71" /><polygon class="mobile_cls-30" points="224.6 233.2 217.09 237.54 174.89 213.17 182.39 208.84 224.6 233.2" /><polygon class="mobile_cls-31" points="239.32 224.7 231.82 229.03 198.71 209.92 206.21 205.59 239.32 224.7" /><polygon class="mobile_cls-32" points="254.05 216.2 246.54 220.53 218.89 204.57 226.4 200.23 254.05 216.2" /><polygon class="mobile_cls-33" points="268.77 207.7 261.27 212.03 240.9 200.27 248.4 195.93 268.77 207.7" /><polygon class="mobile_cls-34" points="283.5 199.19 276 203.53 244.22 185.18 251.73 180.85 283.5 199.19" /><polygon class="mobile_cls-35" points="298.23 190.69 290.72 195.03 265.01 180.18 272.52 175.85 298.23 190.69" /></g><g class="mobile_cls-27"><polygon class="mobile_cls-36" points="209.87 241.71 202.37 246.04 181.75 234.13 189.25 229.8 209.87 241.71" /><polygon class="mobile_cls-37" points="224.6 233.2 217.09 237.54 185.56 219.33 193.06 215 224.6 233.2" /><polygon class="mobile_cls-38" points="239.32 224.7 231.82 229.03 203.92 212.93 211.43 208.6 239.32 224.7" /><polygon class="mobile_cls-39" points="254.05 216.2 246.54 220.53 225.93 208.63 233.43 204.29 254.05 216.2" /><polygon class="mobile_cls-40" points="268.77 207.7 261.27 212.03 247.93 204.33 255.43 200 268.77 207.7" /><polygon class="mobile_cls-41" points="283.5 199.19 276 203.53 251.25 189.24 258.76 184.91 283.5 199.19" /><polygon class="mobile_cls-42" points="298.23 190.69 290.72 195.03 275.68 186.34 283.19 182.01 298.23 190.69" /></g><path class="mobile_cls-43" d="M236.23,140.81c6.48,3.74,17,3.72,23.54-.05s6.55-9.84.07-13.59-17-3.72-23.54,0S229.75,137.07,236.23,140.81Z" /><path class="mobile_cls-44" d="M290.2,173.1c6.48,3.74,17,3.72,23.54,0s6.55-9.85.07-13.59-17-3.72-23.53,0S283.72,169.36,290.2,173.1Z" /><path class="mobile_cls-45" d="M245.9,136.6a2.06,2.06,0,0,0,.73-1.39c0-.3-.41-.53-.92-.53a8.71,8.71,0,0,1-2-.22,1.82,1.82,0,0,1-1.28,0c-.33-.19-.44-.45-.28-.63-1.34-.84-2-1.85-.06-2.95a5,5,0,0,1,5.12,0,1.54,1.54,0,0,1,1.09.16.45.45,0,0,1,0,.74,2,2,0,0,1,.37,1.14c0,.3.41.54.91.54a7.8,7.8,0,0,0,2.43-.43,4.06,4.06,0,0,1,3.14.21l1.48.86a.32.32,0,0,1,0,.6l-7.91,4.56a1.12,1.12,0,0,1-1,0l-1.48-.85C245.41,137.93,245.29,137.17,245.9,136.6Z" /><g class="mobile_cls-46"><path class="mobile_cls-26" d="M301.94,160.32a14.15,14.15,0,0,1,6.89,1.64c3.81,2.2,3.79,5.79-.05,8a14.26,14.26,0,0,1-7,1.67,14.11,14.11,0,0,1-6.88-1.64c-3.81-2.2-3.79-5.79,0-8a14.26,14.26,0,0,1,7-1.67m-4.7,8a1.41,1.41,0,0,0,.69-.16l4.88-2.82-5.2-3a1.37,1.37,0,0,0-.68-.16,1.41,1.41,0,0,0-.69.16c-.38.22-.38.58,0,.79l3.83,2.21-3.5,2c-.38.21-.38.57,0,.79a1.37,1.37,0,0,0,.68.16m4.7-9a15.18,15.18,0,0,0-7.47,1.8c-2.18,1.26-3.39,3-3.39,4.89s1.19,3.6,3.35,4.85a16.34,16.34,0,0,0,14.85,0c2.19-1.26,3.39-3,3.39-4.89s-1.19-3.6-3.34-4.84a15,15,0,0,0-7.39-1.78Z" /></g><path class="mobile_cls-47" d="M306.93,184.63l13.55-7.82-2.65-1.53-13.55,7.82ZM320,174l7.12-4.11,2.65,1.54-7.12,4.1Z" /></g><g id="Pie_Chart" data-name="Pie Chart"><polygon class="mobile_cls-48" points="450.68 228.49 452.01 224.81 501.68 227.61 500.35 231.29 450.68 228.49" /><path class="mobile_cls-49" d="M501,241.56c-.1.32-.21.63-.32.94l-1.34,3.68c.12-.32.22-.63.32-.94.22-.67.4-1.34.56-2s.27-1.26.38-1.9.17-1.21.22-1.82.09-1.19.1-1.79,0-1.17,0-1.76-.07-1.16-.12-1.74-.14-1.17-.23-1.75l-.21-1.17,1.33-3.68c.08.39.15.78.21,1.18.09.58.17,1.16.23,1.74s.1,1.17.13,1.75,0,1.17,0,1.76,0,1.19-.1,1.78-.12,1.22-.22,1.83-.22,1.27-.37,1.9S501.23,240.89,501,241.56Z" /><polygon class="mobile_cls-49" points="452.93 191.25 454.26 187.57 452.01 224.81 450.68 228.49 452.93 191.25" /><path class="mobile_cls-48" d="M454.26,187.57l-1.33,3.68-1.05-.21c-.79-.15-1.58-.29-2.36-.41s-1.54-.22-2.3-.31l-2.29-.24-2.27-.15c-.76,0-1.52-.06-2.28-.07s-1.54,0-2.31,0-1.55,0-2.32.1-1.6.11-2.38.19-1.67.2-2.49.32-1.76.29-2.62.47-1.88.41-2.8.65-2.08.58-3.09.92c-1.27.43-2.51.92-3.7,1.45-7.49,3.35-13.28,8.66-16.21,15.67q-.24.59-.45,1.17l1.33-3.68c.14-.39.29-.77.46-1.16,2.93-7,8.71-12.32,16.2-15.67,1.2-.53,2.43-1,3.71-1.45,1-.34,2-.66,3.09-.93s1.85-.46,2.8-.65,1.73-.33,2.61-.46,1.66-.23,2.5-.32,1.57-.15,2.37-.2,1.55-.08,2.33-.09,1.54,0,2.31,0,1.51,0,2.28.08,1.5.08,2.27.15,1.52.14,2.28.23,1.53.2,2.31.32,1.56.25,2.36.4Z" /><path class="mobile_cls-50" d="M452.93,191.25l-2.25,37.24,49.67,2.8a27.21,27.21,0,0,1-1.45,16c-7.8,18.63-35.71,25.29-62.34,14.88s-41.9-33.94-34.1-52.57C409.1,193.78,430.33,186.6,452.93,191.25Z" /><path class="mobile_cls-51" d="M527.62,206l-1.46-4.18c0-.52,0-1,0-1.56,0-.81-.07-1.6-.16-2.38a22.17,22.17,0,0,0-.36-2.33c-.16-.78-.35-1.54-.58-2.3l-.29-.89,1.45,4.18c.1.29.2.59.29.89.23.76.43,1.52.59,2.3a22.17,22.17,0,0,1,.36,2.33,23.19,23.19,0,0,1,.15,2.37C527.64,204.93,527.64,205.46,527.62,206Z" /><polygon class="mobile_cls-52" points="526.16 201.8 527.62 205.98 461.08 219.17 459.63 214.99 526.16 201.8" /><path class="mobile_cls-20" d="M489.31,170.38c23.88,2.52,37.47,15.22,36.85,31.42L459.63,215l14.67-44.83A87.18,87.18,0,0,1,489.31,170.38Z" /></g><g id="Bar_Chart" data-name="Bar Chart"><polygon class="mobile_cls-53" points="0 65.22 8.95 56.53 17.09 56.75 8.14 65.44 0 65.22" /><polygon class="mobile_cls-54" points="8.14 65.44 40.51 118.05 32.37 117.83 0 65.22 8.14 65.44" /><polygon class="mobile_cls-55" points="8.14 65.44 17.09 56.75 49.46 109.36 40.51 118.05 8.14 65.44" /></g></g></g></g></g>
            </svg>