

<svg version="1.1" id="Layer_1" xmlns="http://www.w3.org/2000/svg" xmlns:xlink="http://www.w3.org/1999/xlink" x="0px" y="0px"
	 viewBox="0 0 210 210" style="enable-background:new 0 0 210 210;" xml:space="preserve">
<style type="text/css">
	.st0{fill:#FDFDE5;}
</style>
<g>
	<polygon class="st0" points="72.1,86 90.4,117.9 76.5,109.9 68.5,96 	"/>
	<path class="st0" d="M0,0v210h210V0H0z M73.5,112.8L66.8,101l-20.7,59.6l-27.7-16L46.1,65l27.7,16l27.4,47.8L73.5,112.8z
		 M163.7,160.9l-55.6-32.1V65.1l27.7-16l55.6,32.1l-27.7,16l-27.8-16l0.1,31.5l55.6,32.1L163.7,160.9z M134,116.1l-2-1.2v-4.6
		l-0.1-31.5l-19.8-11.4v54.4l0,2.3l0,2.2l0.1,0l2,1.2l2,1.2l47.6,27.5l19.9-11.5L136,117.3L134,116.1z M133.8,75.4l2,1.2l27.8,16.1
		l19.7-11.4l-47.6-27.5l0,0l-2,1.1l-2,1.2l-15.7,9.1l15.8,9.1L133.8,75.4z"/>
	<polygon class="st0" points="183.6,144.8 163.7,156.3 116.1,128.8 114.1,127.6 112.1,126.4 112.1,126.4 112.1,124.2 112.1,121.8 
		112.1,67.4 131.9,78.8 132,110.4 132,115 134,116.1 136,117.3 	"/>
	<polygon class="st0" points="68.9,82.8 65.9,91.5 64.2,96.5 43.9,154.7 23.3,142.8 48.3,70.8 50.1,71.9 53.5,73.9 53.5,73.9 
		57,75.9 	"/>
</g>
</svg>