<svg width="1177" height="758" viewBox="0 0 1177 758" fill="none" xmlns="http://www.w3.org/2000/svg">
<line x1="1176" y1="0.5" x2="-4.37115e-08" y2="0.499897" stroke="#F2E2FF"/>
<line x1="1176" y1="28.5002" x2="-4.37115e-08" y2="28.5001" stroke="#F2E2FF"/>
<line x1="1176" y1="56.5002" x2="-4.37115e-08" y2="56.5001" stroke="#F2E2FF"/>
<line x1="1176" y1="84.5005" x2="-4.37115e-08" y2="84.5004" stroke="#F2E2FF"/>
<line x1="1176" y1="112.5" x2="-4.37115e-08" y2="112.5" stroke="#F2E2FF"/>
<line x1="1176" y1="140.5" x2="-4.37115e-08" y2="140.5" stroke="#F2E2FF"/>
<line x1="1176" y1="168.501" x2="-4.37115e-08" y2="168.501" stroke="#F2E2FF"/>
<line x1="1176" y1="196.501" x2="-4.37115e-08" y2="196.501" stroke="#F2E2FF"/>
<line x1="1176" y1="224.501" x2="-4.37115e-08" y2="224.501" stroke="#F2E2FF"/>
<line x1="1176" y1="252.501" x2="-4.37115e-08" y2="252.501" stroke="#F2E2FF"/>
<line x1="1176" y1="280.501" x2="-4.37115e-08" y2="280.501" stroke="#F2E2FF"/>
<line x1="1176" y1="308.501" x2="-4.37115e-08" y2="308.501" stroke="#F2E2FF"/>
<line x1="1176" y1="336.501" x2="-4.37115e-08" y2="336.501" stroke="#F2E2FF"/>
<line x1="1176" y1="364.501" x2="-4.37115e-08" y2="364.501" stroke="#F2E2FF"/>
<line x1="1176" y1="392.501" x2="-4.37115e-08" y2="392.501" stroke="#F2E2FF"/>
<line x1="1176" y1="420.501" x2="-4.37115e-08" y2="420.501" stroke="#F2E2FF"/>
<line x1="1176" y1="448.501" x2="-4.37115e-08" y2="448.501" stroke="#F2E2FF"/>
<line x1="1176" y1="476.502" x2="-4.37115e-08" y2="476.502" stroke="#F2E2FF"/>
<line x1="1176" y1="504.502" x2="-4.37115e-08" y2="504.502" stroke="#F2E2FF"/>
<line x1="1176" y1="532.502" x2="-4.37115e-08" y2="532.502" stroke="#F2E2FF"/>
<line x1="1176" y1="560.502" x2="-4.37115e-08" y2="560.502" stroke="#F2E2FF"/>
<line x1="1176" y1="588.502" x2="-4.37115e-08" y2="588.502" stroke="#F2E2FF"/>
<line x1="1176" y1="616.502" x2="-4.37115e-08" y2="616.502" stroke="#F2E2FF"/>
<line x1="1176" y1="644.502" x2="-4.37115e-08" y2="644.502" stroke="#F2E2FF"/>
<line x1="1176" y1="672.502" x2="-4.37115e-08" y2="672.502" stroke="#F2E2FF"/>
<line x1="1176" y1="700.503" x2="-4.37115e-08" y2="700.503" stroke="#F2E2FF"/>
<line x1="1176" y1="728.503" x2="-4.37115e-08" y2="728.503" stroke="#F2E2FF"/>
<line x1="1176" y1="756.503" x2="-4.37115e-08" y2="756.503" stroke="#F2E2FF"/>
<line x1="0.499329" y1="2.18557e-08" x2="0.499296" y2="756" stroke="#F2E2FF"/>
<line x1="28.4993" y1="2.18557e-08" x2="28.4993" y2="756" stroke="#F2E2FF"/>
<line x1="56.4994" y1="2.18557e-08" x2="56.4994" y2="756" stroke="#F2E2FF"/>
<line x1="84.4994" y1="2.18557e-08" x2="84.4994" y2="756" stroke="#F2E2FF"/>
<line x1="112.499" y1="2.18557e-08" x2="112.499" y2="756" stroke="#F2E2FF"/>
<line x1="140.5" y1="2.18557e-08" x2="140.499" y2="756" stroke="#F2E2FF"/>
<line x1="168.5" y1="2.18557e-08" x2="168.499" y2="756" stroke="#F2E2FF"/>
<line x1="196.5" y1="2.18557e-08" x2="196.499" y2="756" stroke="#F2E2FF"/>
<line x1="224.5" y1="2.18557e-08" x2="224.5" y2="756" stroke="#F2E2FF"/>
<line x1="252.5" y1="2.18557e-08" x2="252.5" y2="756" stroke="#F2E2FF"/>
<line x1="280.5" y1="2.18557e-08" x2="280.5" y2="756" stroke="#F2E2FF"/>
<line x1="308.5" y1="2.18557e-08" x2="308.5" y2="756" stroke="#F2E2FF"/>
<line x1="336.5" y1="2.18557e-08" x2="336.5" y2="756" stroke="#F2E2FF"/>
<line x1="364.5" y1="2.18557e-08" x2="364.5" y2="756" stroke="#F2E2FF"/>
<line x1="392.5" y1="2.18557e-08" x2="392.5" y2="756" stroke="#F2E2FF"/>
<line x1="420.5" y1="2.18557e-08" x2="420.5" y2="756" stroke="#F2E2FF"/>
<line x1="448.5" y1="2.18557e-08" x2="448.5" y2="756" stroke="#F2E2FF"/>
<line x1="476.5" y1="2.18557e-08" x2="476.5" y2="756" stroke="#F2E2FF"/>
<line x1="504.5" y1="2.18557e-08" x2="504.5" y2="756" stroke="#F2E2FF"/>
<line x1="532.5" y1="2.18557e-08" x2="532.5" y2="756" stroke="#F2E2FF"/>
<line x1="560.5" y1="2.18557e-08" x2="560.5" y2="756" stroke="#F2E2FF"/>
<line x1="588.5" y1="2.18557e-08" x2="588.5" y2="756" stroke="#F2E2FF"/>
<line x1="616.5" y1="2.18557e-08" x2="616.5" y2="756" stroke="#F2E2FF"/>
<line x1="644.5" y1="2.18557e-08" x2="644.5" y2="756" stroke="#F2E2FF"/>
<line x1="672.5" y1="2.18557e-08" x2="672.5" y2="756" stroke="#F2E2FF"/>
<line x1="700.5" y1="2.18557e-08" x2="700.5" y2="756" stroke="#F2E2FF"/>
<line x1="728.5" y1="2.18557e-08" x2="728.5" y2="756" stroke="#F2E2FF"/>
<line x1="756.5" y1="2.18557e-08" x2="756.5" y2="756" stroke="#F2E2FF"/>
<line x1="784.5" y1="2.18557e-08" x2="784.5" y2="756" stroke="#F2E2FF"/>
<line x1="812.5" y1="2.18557e-08" x2="812.5" y2="756" stroke="#F2E2FF"/>
<line x1="840.501" y1="2.18557e-08" x2="840.501" y2="756" stroke="#F2E2FF"/>
<line x1="868.501" y1="2.18557e-08" x2="868.501" y2="756" stroke="#F2E2FF"/>
<line x1="896.501" y1="2.18557e-08" x2="896.501" y2="756" stroke="#F2E2FF"/>
<line x1="924.501" y1="2.18557e-08" x2="924.501" y2="756" stroke="#F2E2FF"/>
<line x1="952.501" y1="2.18557e-08" x2="952.501" y2="756" stroke="#F2E2FF"/>
<line x1="980.501" y1="2.18557e-08" x2="980.501" y2="756" stroke="#F2E2FF"/>
<line x1="1008.5" y1="2.18557e-08" x2="1008.5" y2="756" stroke="#F2E2FF"/>
<line x1="1036.5" y1="2.18557e-08" x2="1036.5" y2="756" stroke="#F2E2FF"/>
<line x1="1064.5" y1="2.18557e-08" x2="1064.5" y2="756" stroke="#F2E2FF"/>
<line x1="1092.5" y1="2.18557e-08" x2="1092.5" y2="756" stroke="#F2E2FF"/>
<line x1="1120.5" y1="2.18557e-08" x2="1120.5" y2="756" stroke="#F2E2FF"/>
<line x1="1148.5" y1="2.18557e-08" x2="1148.5" y2="756" stroke="#F2E2FF"/>
<line x1="1176.5" y1="2.18557e-08" x2="1176.5" y2="756" stroke="#F2E2FF"/>
</svg>
