<svg width="1177" height="450" viewBox="0 0 1177 450" fill="none" xmlns="http://www.w3.org/2000/svg">
<line x1="1176" y1="0.500092" x2="-4.37115e-08" y2="0.499989" stroke="#F2E2FF"/>
<line x1="1176" y1="28.5002" x2="-4.37115e-08" y2="28.5001" stroke="#F2E2FF"/>
<line x1="1176" y1="56.5003" x2="-4.37115e-08" y2="56.5002" stroke="#F2E2FF"/>
<line x1="1176" y1="84.5004" x2="-4.37115e-08" y2="84.5003" stroke="#F2E2FF"/>
<line x1="1176" y1="112.501" x2="-4.37115e-08" y2="112.5" stroke="#F2E2FF"/>
<line x1="1176" y1="140.501" x2="-4.37115e-08" y2="140.501" stroke="#F2E2FF"/>
<line x1="1176" y1="168.501" x2="-4.37115e-08" y2="168.501" stroke="#F2E2FF"/>
<line x1="1176" y1="196.501" x2="-4.37115e-08" y2="196.501" stroke="#F2E2FF"/>
<line x1="1176" y1="224.501" x2="-4.37115e-08" y2="224.501" stroke="#F2E2FF"/>
<line x1="1176" y1="252.501" x2="-4.37115e-08" y2="252.501" stroke="#F2E2FF"/>
<line x1="1176" y1="280.501" x2="-4.37115e-08" y2="280.501" stroke="#F2E2FF"/>
<line x1="1176" y1="308.501" x2="-4.37115e-08" y2="308.501" stroke="#F2E2FF"/>
<line x1="1176" y1="336.501" x2="-4.37115e-08" y2="336.501" stroke="#F2E2FF"/>
<line x1="1176" y1="364.501" x2="-4.37115e-08" y2="364.501" stroke="#F2E2FF"/>
<line x1="1176" y1="392.501" x2="-4.37115e-08" y2="392.501" stroke="#F2E2FF"/>
<line x1="1176" y1="420.502" x2="-4.37115e-08" y2="420.501" stroke="#F2E2FF"/>
<line x1="1176" y1="448.502" x2="-4.37115e-08" y2="448.502" stroke="#F2E2FF"/>
<line x1="0.499634" y1="2.18557e-08" x2="0.499614" y2="448" stroke="#F2E2FF"/>
<line x1="28.4996" y1="2.18557e-08" x2="28.4996" y2="448" stroke="#F2E2FF"/>
<line x1="56.4996" y1="2.18557e-08" x2="56.4996" y2="448" stroke="#F2E2FF"/>
<line x1="84.4996" y1="2.18557e-08" x2="84.4996" y2="448" stroke="#F2E2FF"/>
<line x1="112.5" y1="2.18557e-08" x2="112.5" y2="448" stroke="#F2E2FF"/>
<line x1="140.5" y1="2.18557e-08" x2="140.5" y2="448" stroke="#F2E2FF"/>
<line x1="168.5" y1="2.18557e-08" x2="168.5" y2="448" stroke="#F2E2FF"/>
<line x1="196.5" y1="2.18557e-08" x2="196.5" y2="448" stroke="#F2E2FF"/>
<line x1="224.5" y1="2.18557e-08" x2="224.5" y2="448" stroke="#F2E2FF"/>
<line x1="252.5" y1="2.18557e-08" x2="252.5" y2="448" stroke="#F2E2FF"/>
<line x1="280.5" y1="2.18557e-08" x2="280.5" y2="448" stroke="#F2E2FF"/>
<line x1="308.5" y1="2.18557e-08" x2="308.5" y2="448" stroke="#F2E2FF"/>
<line x1="336.5" y1="2.18557e-08" x2="336.5" y2="448" stroke="#F2E2FF"/>
<line x1="364.5" y1="2.18557e-08" x2="364.5" y2="448" stroke="#F2E2FF"/>
<line x1="392.5" y1="2.18557e-08" x2="392.5" y2="448" stroke="#F2E2FF"/>
<line x1="420.5" y1="2.18557e-08" x2="420.5" y2="448" stroke="#F2E2FF"/>
<line x1="448.5" y1="2.18557e-08" x2="448.5" y2="448" stroke="#F2E2FF"/>
<line x1="476.5" y1="2.18557e-08" x2="476.5" y2="448" stroke="#F2E2FF"/>
<line x1="504.5" y1="2.18557e-08" x2="504.5" y2="448" stroke="#F2E2FF"/>
<line x1="532.5" y1="2.18557e-08" x2="532.5" y2="448" stroke="#F2E2FF"/>
<line x1="560.5" y1="2.18557e-08" x2="560.5" y2="448" stroke="#F2E2FF"/>
<line x1="588.5" y1="2.18557e-08" x2="588.5" y2="448" stroke="#F2E2FF"/>
<line x1="616.5" y1="2.18557e-08" x2="616.5" y2="448" stroke="#F2E2FF"/>
<line x1="644.5" y1="2.18557e-08" x2="644.5" y2="448" stroke="#F2E2FF"/>
<line x1="672.5" y1="2.18557e-08" x2="672.5" y2="448" stroke="#F2E2FF"/>
<line x1="700.5" y1="2.18557e-08" x2="700.5" y2="448" stroke="#F2E2FF"/>
<line x1="728.5" y1="2.18557e-08" x2="728.5" y2="448" stroke="#F2E2FF"/>
<line x1="756.5" y1="2.18557e-08" x2="756.5" y2="448" stroke="#F2E2FF"/>
<line x1="784.5" y1="2.18557e-08" x2="784.5" y2="448" stroke="#F2E2FF"/>
<line x1="812.5" y1="2.18557e-08" x2="812.5" y2="448" stroke="#F2E2FF"/>
<line x1="840.5" y1="2.18557e-08" x2="840.5" y2="448" stroke="#F2E2FF"/>
<line x1="868.5" y1="2.18557e-08" x2="868.5" y2="448" stroke="#F2E2FF"/>
<line x1="896.5" y1="2.18557e-08" x2="896.5" y2="448" stroke="#F2E2FF"/>
<line x1="924.5" y1="2.18557e-08" x2="924.5" y2="448" stroke="#F2E2FF"/>
<line x1="952.5" y1="2.18557e-08" x2="952.5" y2="448" stroke="#F2E2FF"/>
<line x1="980.5" y1="2.18557e-08" x2="980.5" y2="448" stroke="#F2E2FF"/>
<line x1="1008.5" y1="2.18557e-08" x2="1008.5" y2="448" stroke="#F2E2FF"/>
<line x1="1036.5" y1="2.18557e-08" x2="1036.5" y2="448" stroke="#F2E2FF"/>
<line x1="1064.5" y1="2.18557e-08" x2="1064.5" y2="448" stroke="#F2E2FF"/>
<line x1="1092.5" y1="2.18557e-08" x2="1092.5" y2="448" stroke="#F2E2FF"/>
<line x1="1120.5" y1="2.18557e-08" x2="1120.5" y2="448" stroke="#F2E2FF"/>
<line x1="1148.5" y1="2.18557e-08" x2="1148.5" y2="448" stroke="#F2E2FF"/>
<line x1="1176.5" y1="2.18557e-08" x2="1176.5" y2="448" stroke="#F2E2FF"/>
</svg>
